# xmcd
#
# Track frame offsets:
#	150
#	18061
#	33411
#	48761
#	68208
#	86119
#	102494
#	120575
#	138486
#	155542
#	175159
#	193581
#	208760
#
# Disc length: 3031 seconds
#
# Revision: 0
# Processed by: cddbd v1.5.1PL0 Copyright (c) Steve Scherf et al.
# Submitted via: EasyCDDAExtractor 8.0.2.1
#
DISCID=ae0bd50d
DTITLE=Akon - Trouble
DYEAR=2004
DGENRE=R&B
TTITLE0=Locked Up
TTITLE1=Trouble Nobody
TTITLE2=Showout
TTITLE3=Gangsta
TTITLE4=Ghetto
TTITLE5=Pot Of Gold
TTITLE6=Bananaz (Belly Dancer)
TTITLE7=Lonely
TTITLE8=When The Time's Right
TTITLE9=Journey
TTITLE10=Don't Let Up
TTITLE11=Easy Road
TTITLE12=Locked Up (Remix) (Featuring Styles)
EXTD=
EXTT0=
EXTT1=
EXTT2=
EXTT3=
EXTT4=
EXTT5=
EXTT6=
EXTT7=
EXTT8=
EXTT9=
EXTT10=
EXTT11=
EXTT12=
PLAYORDER=
